<?xml version="1.0" encoding="UTF-8" standalone="no"?>
<!DOCTYPE svg PUBLIC "-//W3C//DTD SVG 1.1//EN" "http://www.w3.org/Graphics/SVG/1.1/DTD/svg11.dtd">
<svg xmlns="http://www.w3.org/2000/svg" version="1.1" viewBox="0 0 383 300">
<g stroke-width="5.0" fill="none" stroke-linecap="butt">
<path stroke="#f09753" vector-effect="non-scaling-stroke" d="
  M 360.56 0.00
  Q 359.08 0.62 354.50 3.25
  Q 245.14 66.02 135.75 128.75
  Q 133.87 129.83 133.21 130.50"
/>
<path stroke="#8b522f" vector-effect="non-scaling-stroke" d="
  M 133.21 130.50
  Q 124.12 135.10 115.48 140.50
  Q 112.60 142.29 110.36 140.34
  C 110.08 140.10 109.77 139.97 109.51 139.98
  L 105.93 140.12
  C 105.65 140.13 105.37 140.31 105.16 140.60
  Q 103.75 142.53 103.54 140.18
  Q 103.50 139.80 103.59 138.83
  Q 103.82 136.40 102.32 135.00
  Q 101.26 134.00 98.88 134.00
  Q 68.94 134.00 39.00 134.02
  Q 33.73 134.03 34.37 138.70
  C 34.46 139.32 34.00 139.89 33.37 139.94
  Q 29.30 140.23 25.20 139.35
  C 24.73 139.25 24.29 139.58 24.30 140.04
  L 24.49 149.65
  C 24.50 149.97 24.82 150.19 25.14 150.10
  Q 28.81 149.07 33.45 149.31
  C 33.89 149.33 34.23 149.69 34.24 150.13
  L 34.26 165.25
  C 34.26 165.59 34.10 165.89 33.84 166.03
  L 28.46 169.05
  C 28.23 169.18 27.89 169.22 27.50 169.17
  Q 23.77 168.70 24.15 171.83
  Q 24.27 172.81 24.97 173.29
  Q 25.78 173.84 26.78 173.63
  C 27.05 173.58 27.33 173.39 27.57 173.10
  Q 29.99 170.16 33.27 168.61
  Q 34.46 168.04 34.30 169.35
  Q 33.60 175.04 37.48 175.93
  Q 37.80 176.00 43.53 175.97
  Q 51.24 175.92 58.96 176.19
  Q 61.89 176.29 60.08 178.82
  L 56.70 183.55
  C 56.34 184.05 55.81 184.38 55.24 184.44
  L 46.75 185.42
  C 46.38 185.47 46.05 185.41 45.82 185.26
  L 44.66 184.54
  C 44.36 184.35 44.04 184.26 43.75 184.27
  Q 39.52 184.45 37.75 184.75
  Q 33.48 185.47 35.42 188.88
  C 35.58 189.16 35.85 189.36 36.17 189.42
  Q 40.64 190.31 44.63 188.61
  Q 47.57 187.35 49.12 187.14
  Q 51.99 186.73 55.01 186.48
  C 55.30 186.46 55.51 186.73 55.42 187.00
  Q 54.51 189.60 55.46 191.86
  Q 56.14 193.50 55.44 195.09
  L 20.96 273.50"
/>
<path stroke="#d36220" vector-effect="non-scaling-stroke" d="
  M 20.96 273.50
  Q 14.89 273.20 9.94 276.69
  Q 8.16 277.94 10.31 278.94
  Q 15.78 281.48 21.77 282.34
  Q 56.89 287.32 92.26 284.69
  Q 103.10 283.88 113.77 281.86
  Q 118.09 281.04 121.71 279.06
  Q 124.14 277.73 121.83 276.20
  Q 117.81 273.54 113.04 273.75"
/>
<path stroke="#8b522f" vector-effect="non-scaling-stroke" d="
  M 113.04 273.75
  L 78.44 194.92
  C 78.06 194.05 78.08 193.05 78.50 192.17
  Q 79.46 190.15 78.82 188.05
  Q 78.68 187.56 77.37 184.37
  Q 76.21 181.52 73.75 178.75
  Q 72.59 177.44 73.49 176.53
  Q 74.01 176.00 75.18 176.00
  Q 86.97 176.00 98.75 176.00
  Q 102.70 176.00 103.41 173.27
  Q 103.50 172.91 103.49 168.70
  Q 103.47 162.16 103.56 155.80
  C 103.56 155.43 103.95 155.19 104.28 155.34
  Q 107.25 156.68 109.70 156.28
  Q 110.11 156.22 110.56 155.86
  Q 112.64 154.20 115.19 155.81
  Q 123.15 160.83 133.25 165.96"
/>
<path stroke="#f09753" vector-effect="non-scaling-stroke" d="
  M 133.25 165.96
  Q 133.89 166.80 135.50 167.75
  Q 247.80 233.95 360.19 300.00"
/>
<path stroke="#8b522f" vector-effect="non-scaling-stroke" d="
  M 126.04 102.77
  C 126.04 86.59 112.93 73.48 96.75 73.48
  C 80.57 73.48 67.46 86.59 67.46 102.77
  C 67.46 118.95 80.57 132.06 96.75 132.06
  C 112.93 132.06 126.04 118.95 126.04 102.77"
/>
<path stroke="#8b522f" vector-effect="non-scaling-stroke" d="
  M 62.58 109.69
  C 62.58 97.39 52.61 87.42 40.31 87.42
  C 28.01 87.42 18.04 97.39 18.04 109.69
  C 18.04 121.99 28.01 131.96 40.31 131.96
  C 52.61 131.96 62.58 121.99 62.58 109.69"
/>
<path stroke="#8e7d5c" vector-effect="non-scaling-stroke" d="
  M 133.25 165.96
  L 133.21 130.50"
/>
<path stroke="#8e7d5c" vector-effect="non-scaling-stroke" d="
  M 84.46 88.00
  Q 87.24 93.12 92.33 95.95
  Q 94.35 97.07 94.96 94.85
  Q 96.53 89.23 94.50 83.71"
/>
<path stroke="#8b522f" vector-effect="non-scaling-stroke" d="
  M 94.50 83.71
  Q 93.64 77.25 87.50 79.25
  Q 80.44 81.55 84.46 88.00"
/>
<path stroke="#f09753" vector-effect="non-scaling-stroke" d="
  M 94.50 83.71
  Q 88.93 84.59 84.46 88.00"
/>
<path stroke="#8e7d5c" vector-effect="non-scaling-stroke" d="
  M 98.71 83.25
  Q 96.64 89.20 98.18 93.99
  Q 99.26 97.37 102.16 95.31
  Q 106.76 92.04 108.79 87.50"
/>
<path stroke="#8b522f" vector-effect="non-scaling-stroke" d="
  M 108.79 87.50
  Q 112.65 80.92 105.25 79.00
  Q 99.61 77.53 98.71 83.25"
/>
<path stroke="#f09753" vector-effect="non-scaling-stroke" d="
  M 108.79 87.50
  Q 104.02 84.75 98.71 83.25"
/>
<path stroke="#8e7d5c" vector-effect="non-scaling-stroke" d="
  M 111.75 90.46
  Q 106.45 93.10 103.50 98.25
  Q 102.35 100.26 104.19 100.81
  Q 110.18 102.59 116.04 100.50"
/>
<path stroke="#8b522f" vector-effect="non-scaling-stroke" d="
  M 116.04 100.50
  Q 123.03 99.06 119.83 92.43
  Q 117.08 86.76 111.75 90.46"
/>
<path stroke="#f09753" vector-effect="non-scaling-stroke" d="
  M 116.04 100.50
  Q 115.10 94.96 111.75 90.46"
/>
<path stroke="#8e7d5c" vector-effect="non-scaling-stroke" d="
  M 77.50 100.96
  Q 83.05 102.63 88.70 101.18
  Q 91.10 100.57 89.86 98.43
  Q 86.93 93.35 81.50 90.79"
/>
<path stroke="#8b522f" vector-effect="non-scaling-stroke" d="
  M 81.50 90.79
  Q 75.32 87.17 73.13 93.84
  Q 71.09 100.05 77.50 100.96"
/>
<path stroke="#f09753" vector-effect="non-scaling-stroke" d="
  M 81.50 90.79
  Q 78.50 95.48 77.50 100.96"
/>
<path stroke="#8b522f" vector-effect="non-scaling-stroke" d="
  M 112.00 114.79
  Q 117.88 118.53 120.32 112.07
  Q 122.56 106.11 116.50 104.79"
/>
<path stroke="#8e7d5c" vector-effect="non-scaling-stroke" d="
  M 116.50 104.79
  Q 110.27 102.43 104.72 104.56
  Q 102.45 105.43 103.74 107.49
  Q 106.81 112.36 112.00 114.79"
/>
<path stroke="#f09753" vector-effect="non-scaling-stroke" d="
  M 116.50 104.79
  Q 115.16 110.23 112.00 114.79"
/>
<path stroke="#8b522f" vector-effect="non-scaling-stroke" d="
  M 77.25 105.29
  Q 73.46 105.68 72.84 108.75
  Q 72.49 110.51 73.36 112.66
  Q 74.28 114.92 75.81 115.94
  Q 78.52 117.74 81.54 115.25"
/>
<path stroke="#8e7d5c" vector-effect="non-scaling-stroke" d="
  M 81.54 115.25
  Q 86.62 112.85 89.57 108.05
  Q 91.30 105.23 88.10 104.40
  Q 82.71 102.99 77.25 105.29"
/>
<path stroke="#f09753" vector-effect="non-scaling-stroke" d="
  M 81.54 115.25
  Q 78.91 110.48 77.25 105.29"
/>
<path stroke="#8b522f" vector-effect="non-scaling-stroke" d="
  M 99.04 122.25
  Q 101.26 129.74 108.06 125.31
  Q 112.65 122.33 109.04 117.75"
/>
<path stroke="#8e7d5c" vector-effect="non-scaling-stroke" d="
  M 109.04 117.75
  Q 106.47 112.51 101.92 109.85
  Q 98.95 108.10 98.25 111.48
  Q 97.12 117.00 99.04 122.25"
/>
<path stroke="#f09753" vector-effect="non-scaling-stroke" d="
  M 109.04 117.75
  Q 104.64 121.28 99.04 122.25"
/>
<path stroke="#8b522f" vector-effect="non-scaling-stroke" d="
  M 84.71 118.00
  Q 80.84 125.03 88.56 126.69
  Q 94.12 127.89 94.96 122.00"
/>
<path stroke="#8e7d5c" vector-effect="non-scaling-stroke" d="
  M 94.96 122.00
  Q 96.58 116.67 95.25 111.24
  Q 94.56 108.46 92.06 109.84
  Q 87.25 112.50 84.71 118.00"
/>
<path stroke="#f09753" vector-effect="non-scaling-stroke" d="
  M 94.96 122.00
  Q 89.29 121.42 84.71 118.00"
/>
<path stroke="#8e7d5c" vector-effect="non-scaling-stroke" d="
  M 36.54 97.00
  Q 37.04 98.83 38.19 99.31
  Q 42.27 101.03 44.00 97.29"
/>
<path stroke="#8b522f" vector-effect="non-scaling-stroke" d="
  M 44.00 97.29
  Q 45.03 93.88 42.72 92.38
  Q 40.75 91.10 38.54 92.04
  Q 35.81 93.21 36.54 97.00"
/>
<path stroke="#f09753" vector-effect="non-scaling-stroke" d="
  M 44.00 97.29
  L 36.54 97.00"
/>
<path stroke="#8e7d5c" vector-effect="non-scaling-stroke" d="
  M 28.96 103.50
  Q 35.35 104.78 34.21 98.25"
/>
<path stroke="#8b522f" vector-effect="non-scaling-stroke" d="
  M 34.21 98.25
  Q 32.99 95.78 30.71 95.74
  Q 28.87 95.70 27.36 97.34
  Q 24.36 100.60 28.96 103.50"
/>
<path stroke="#f09753" vector-effect="non-scaling-stroke" d="
  M 34.21 98.25
  Q 30.99 100.30 28.96 103.50"
/>
<path stroke="#8e7d5c" vector-effect="non-scaling-stroke" d="
  M 46.50 98.46
  Q 45.67 99.78 46.44 101.31
  Q 48.13 104.69 51.75 103.71"
/>
<path stroke="#8b522f" vector-effect="non-scaling-stroke" d="
  M 51.75 103.71
  Q 55.21 102.07 54.00 98.50
  Q 52.82 95.01 48.93 95.88
  Q 46.83 96.36 46.50 98.46"
/>
<path stroke="#f09753" vector-effect="non-scaling-stroke" d="
  M 51.75 103.71
  Q 49.95 100.26 46.50 98.46"
/>
<path stroke="#8e7d5c" vector-effect="non-scaling-stroke" d="
  M 28.25 113.29
  Q 33.13 109.44 28.00 106.04"
/>
<path stroke="#8b522f" vector-effect="non-scaling-stroke" d="
  M 28.00 106.04
  Q 22.85 104.78 22.45 108.95
  Q 22.22 111.33 23.61 112.73
  Q 25.30 114.44 28.25 113.29"
/>
<path stroke="#f09753" vector-effect="non-scaling-stroke" d="
  M 28.00 106.04
  Q 26.80 109.74 28.25 113.29"
/>
<path stroke="#8e7d5c" vector-effect="non-scaling-stroke" d="
  M 52.71 106.00
  Q 49.91 107.15 50.25 110.25
  Q 50.51 112.58 52.71 113.25"
/>
<path stroke="#8b522f" vector-effect="non-scaling-stroke" d="
  M 52.71 113.25
  Q 56.20 114.44 57.70 112.06
  Q 58.94 110.10 57.96 107.87
  Q 56.66 104.92 52.71 106.00"
/>
<path stroke="#f09753" vector-effect="non-scaling-stroke" d="
  M 52.71 113.25
  Q 53.60 109.61 52.71 106.00"
/>
<path stroke="#8b522f" vector-effect="non-scaling-stroke" d="
  M 29.21 115.75
  Q 26.62 116.30 26.47 119.00
  Q 26.25 122.96 30.06 123.69
  Q 32.91 124.23 34.25 121.04"
/>
<path stroke="#8e7d5c" vector-effect="non-scaling-stroke" d="
  M 34.25 121.04
  Q 35.23 114.93 29.21 115.75"
/>
<path stroke="#f09753" vector-effect="non-scaling-stroke" d="
  M 34.25 121.04
  Q 30.76 119.27 29.21 115.75"
/>
<path stroke="#8b522f" vector-effect="non-scaling-stroke" d="
  M 46.46 121.00
  Q 47.70 123.70 50.21 123.62
  Q 52.26 123.54 53.58 121.69
  Q 55.85 118.50 51.75 115.79"
/>
<path stroke="#8e7d5c" vector-effect="non-scaling-stroke" d="
  M 51.75 115.79
  Q 45.32 114.71 46.46 121.00"
/>
<path stroke="#f09753" vector-effect="non-scaling-stroke" d="
  M 51.75 115.79
  Q 49.66 118.97 46.46 121.00"
/>
<path stroke="#8b522f" vector-effect="non-scaling-stroke" d="
  M 36.50 122.21
  Q 35.70 126.02 38.36 127.23
  Q 40.53 128.22 42.58 127.06
  Q 44.96 125.71 44.21 122.25"
/>
<path stroke="#8e7d5c" vector-effect="non-scaling-stroke" d="
  M 44.21 122.25
  Q 40.32 116.52 36.50 122.21"
/>
<path stroke="#f09753" vector-effect="non-scaling-stroke" d="
  M 44.21 122.25
  L 36.50 122.21"
/>
<path stroke="#714729" vector-effect="non-scaling-stroke" d="
  M 113.04 273.75
  L 114.28 275.96
  C 114.41 276.19 114.25 276.49 113.96 276.55
  Q 111.50 277.10 109.05 276.56
  C 108.79 276.50 108.62 276.23 108.67 275.96
  Q 109.02 273.93 107.71 272.25"
/>
<path stroke="#8b522f" vector-effect="non-scaling-stroke" d="
  M 107.71 272.25
  L 74.39 196.01
  C 74.26 195.72 74.01 195.51 73.71 195.43
  Q 71.62 194.92 69.54 195.43
  C 69.26 195.50 69.06 195.76 69.06 196.07
  L 69.04 269.25"
/>
<path stroke="#714729" vector-effect="non-scaling-stroke" d="
  M 69.04 269.25
  Q 68.97 273.25 68.79 277.24
  Q 68.70 279.08 69.67 280.53
  Q 70.48 281.75 69.02 281.75
  L 64.67 281.75
  C 64.34 281.75 64.09 281.44 64.17 281.12
  Q 65.54 275.21 64.96 269.50"
/>
<path stroke="#8b522f" vector-effect="non-scaling-stroke" d="
  M 64.96 269.50
  L 65.00 196.01
  C 65.00 195.71 64.80 195.45 64.52 195.39
  Q 62.40 194.94 60.30 195.44
  C 59.99 195.51 59.74 195.72 59.61 196.01
  L 26.25 272.21"
/>
<path stroke="#714729" vector-effect="non-scaling-stroke" d="
  M 26.25 272.21
  Q 25.10 273.75 25.19 275.64
  C 25.21 276.10 24.88 276.50 24.43 276.57
  Q 17.13 277.70 20.96 273.50"
/>
<path stroke="#d36220" vector-effect="non-scaling-stroke" d="
  M 64.96 269.50
  Q 64.76 269.67 64.54 269.81
  Q 64.33 269.94 64.05 269.93
  Q 45.04 269.37 26.25 272.21"
/>
<path stroke="#d36220" vector-effect="non-scaling-stroke" d="
  M 107.71 272.25
  Q 88.02 269.59 70.00 269.75
  Q 69.25 269.76 69.04 269.25"
/>
</g>
<path fill="#ec6c25" d="
  M 0.00 0.00
  Q 180.28 0.00 360.56 0.00
  Q 359.08 0.62 354.50 3.25
  Q 245.14 66.02 135.75 128.75
  Q 133.87 129.83 133.21 130.50
  Q 124.12 135.10 115.48 140.50
  Q 112.60 142.29 110.36 140.34
  C 110.08 140.10 109.77 139.97 109.51 139.98
  L 105.93 140.12
  C 105.65 140.13 105.37 140.31 105.16 140.60
  Q 103.75 142.53 103.54 140.18
  Q 103.50 139.80 103.59 138.83
  Q 103.82 136.40 102.32 135.00
  Q 101.26 134.00 98.88 134.00
  Q 68.94 134.00 39.00 134.02
  Q 33.73 134.03 34.37 138.70
  C 34.46 139.32 34.00 139.89 33.37 139.94
  Q 29.30 140.23 25.20 139.35
  C 24.73 139.25 24.29 139.58 24.30 140.04
  L 24.49 149.65
  C 24.50 149.97 24.82 150.19 25.14 150.10
  Q 28.81 149.07 33.45 149.31
  C 33.89 149.33 34.23 149.69 34.24 150.13
  L 34.26 165.25
  C 34.26 165.59 34.10 165.89 33.84 166.03
  L 28.46 169.05
  C 28.23 169.18 27.89 169.22 27.50 169.17
  Q 23.77 168.70 24.15 171.83
  Q 24.27 172.81 24.97 173.29
  Q 25.78 173.84 26.78 173.63
  C 27.05 173.58 27.33 173.39 27.57 173.10
  Q 29.99 170.16 33.27 168.61
  Q 34.46 168.04 34.30 169.35
  Q 33.60 175.04 37.48 175.93
  Q 37.80 176.00 43.53 175.97
  Q 51.24 175.92 58.96 176.19
  Q 61.89 176.29 60.08 178.82
  L 56.70 183.55
  C 56.34 184.05 55.81 184.38 55.24 184.44
  L 46.75 185.42
  C 46.38 185.47 46.05 185.41 45.82 185.26
  L 44.66 184.54
  C 44.36 184.35 44.04 184.26 43.75 184.27
  Q 39.52 184.45 37.75 184.75
  Q 33.48 185.47 35.42 188.88
  C 35.58 189.16 35.85 189.36 36.17 189.42
  Q 40.64 190.31 44.63 188.61
  Q 47.57 187.35 49.12 187.14
  Q 51.99 186.73 55.01 186.48
  C 55.30 186.46 55.51 186.73 55.42 187.00
  Q 54.51 189.60 55.46 191.86
  Q 56.14 193.50 55.44 195.09
  L 20.96 273.50
  Q 14.89 273.20 9.94 276.69
  Q 8.16 277.94 10.31 278.94
  Q 15.78 281.48 21.77 282.34
  Q 56.89 287.32 92.26 284.69
  Q 103.10 283.88 113.77 281.86
  Q 118.09 281.04 121.71 279.06
  Q 124.14 277.73 121.83 276.20
  Q 117.81 273.54 113.04 273.75
  L 78.44 194.92
  C 78.06 194.05 78.08 193.05 78.50 192.17
  Q 79.46 190.15 78.82 188.05
  Q 78.68 187.56 77.37 184.37
  Q 76.21 181.52 73.75 178.75
  Q 72.59 177.44 73.49 176.53
  Q 74.01 176.00 75.18 176.00
  Q 86.97 176.00 98.75 176.00
  Q 102.70 176.00 103.41 173.27
  Q 103.50 172.91 103.49 168.70
  Q 103.47 162.16 103.56 155.80
  C 103.56 155.43 103.95 155.19 104.28 155.34
  Q 107.25 156.68 109.70 156.28
  Q 110.11 156.22 110.56 155.86
  Q 112.64 154.20 115.19 155.81
  Q 123.15 160.83 133.25 165.96
  Q 133.89 166.80 135.50 167.75
  Q 247.80 233.95 360.19 300.00
  Q 180.09 300.00 0.00 300.00
  Q 0.00 150.00 0.00 0.00
  Z
  M 126.04 102.77
  C 126.04 86.59 112.93 73.48 96.75 73.48
  C 80.57 73.48 67.46 86.59 67.46 102.77
  C 67.46 118.95 80.57 132.06 96.75 132.06
  C 112.93 132.06 126.04 118.95 126.04 102.77
  Z
  M 62.58 109.69
  C 62.58 97.39 52.61 87.42 40.31 87.42
  C 28.01 87.42 18.04 97.39 18.04 109.69
  C 18.04 121.99 28.01 131.96 40.31 131.96
  C 52.61 131.96 62.58 121.99 62.58 109.69
  Z"
/>
<path fill="#f3c280" d="
  M 360.56 0.00
  Q 371.78 0.00 383.00 0.00
  Q 383.00 150.00 383.00 300.00
  Q 371.59 300.00 360.19 300.00
  Q 247.80 233.95 135.50 167.75
  Q 133.89 166.80 133.25 165.96
  L 133.21 130.50
  Q 133.87 129.83 135.75 128.75
  Q 245.14 66.02 354.50 3.25
  Q 359.08 0.62 360.56 0.00
  Z"
/>
<path fill="#293738" d="
  M 126.04 102.77
  C 126.04 118.95 112.93 132.06 96.75 132.06
  C 80.57 132.06 67.46 118.95 67.46 102.77
  C 67.46 86.59 80.57 73.48 96.75 73.48
  C 112.93 73.48 126.04 86.59 126.04 102.77
  Z
  M 84.46 88.00
  Q 87.24 93.12 92.33 95.95
  Q 94.35 97.07 94.96 94.85
  Q 96.53 89.23 94.50 83.71
  Q 93.64 77.25 87.50 79.25
  Q 80.44 81.55 84.46 88.00
  Z
  M 98.71 83.25
  Q 96.64 89.20 98.18 93.99
  Q 99.26 97.37 102.16 95.31
  Q 106.76 92.04 108.79 87.50
  Q 112.65 80.92 105.25 79.00
  Q 99.61 77.53 98.71 83.25
  Z
  M 111.75 90.46
  Q 106.45 93.10 103.50 98.25
  Q 102.35 100.26 104.19 100.81
  Q 110.18 102.59 116.04 100.50
  Q 123.03 99.06 119.83 92.43
  Q 117.08 86.76 111.75 90.46
  Z
  M 77.50 100.96
  Q 83.05 102.63 88.70 101.18
  Q 91.10 100.57 89.86 98.43
  Q 86.93 93.35 81.50 90.79
  Q 75.32 87.17 73.13 93.84
  Q 71.09 100.05 77.50 100.96
  Z
  M 112.00 114.79
  Q 117.88 118.53 120.32 112.07
  Q 122.56 106.11 116.50 104.79
  Q 110.27 102.43 104.72 104.56
  Q 102.45 105.43 103.74 107.49
  Q 106.81 112.36 112.00 114.79
  Z
  M 77.25 105.29
  Q 73.46 105.68 72.84 108.75
  Q 72.49 110.51 73.36 112.66
  Q 74.28 114.92 75.81 115.94
  Q 78.52 117.74 81.54 115.25
  Q 86.62 112.85 89.57 108.05
  Q 91.30 105.23 88.10 104.40
  Q 82.71 102.99 77.25 105.29
  Z
  M 99.04 122.25
  Q 101.26 129.74 108.06 125.31
  Q 112.65 122.33 109.04 117.75
  Q 106.47 112.51 101.92 109.85
  Q 98.95 108.10 98.25 111.48
  Q 97.12 117.00 99.04 122.25
  Z
  M 84.71 118.00
  Q 80.84 125.03 88.56 126.69
  Q 94.12 127.89 94.96 122.00
  Q 96.58 116.67 95.25 111.24
  Q 94.56 108.46 92.06 109.84
  Q 87.25 112.50 84.71 118.00
  Z"
/>
<path fill="#ec6c25" d="
  M 94.50 83.71
  Q 88.93 84.59 84.46 88.00
  Q 80.44 81.55 87.50 79.25
  Q 93.64 77.25 94.50 83.71
  Z"
/>
<path fill="#ec6c25" d="
  M 108.79 87.50
  Q 104.02 84.75 98.71 83.25
  Q 99.61 77.53 105.25 79.00
  Q 112.65 80.92 108.79 87.50
  Z"
/>
<path fill="#f3c280" d="
  M 98.71 83.25
  Q 104.02 84.75 108.79 87.50
  Q 106.76 92.04 102.16 95.31
  Q 99.26 97.37 98.18 93.99
  Q 96.64 89.20 98.71 83.25
  Z"
/>
<path fill="#f3c280" d="
  M 94.50 83.71
  Q 96.53 89.23 94.96 94.85
  Q 94.35 97.07 92.33 95.95
  Q 87.24 93.12 84.46 88.00
  Q 88.93 84.59 94.50 83.71
  Z"
/>
<path fill="#293738" d="
  M 62.58 109.69
  C 62.58 121.99 52.61 131.96 40.31 131.96
  C 28.01 131.96 18.04 121.99 18.04 109.69
  C 18.04 97.39 28.01 87.42 40.31 87.42
  C 52.61 87.42 62.58 97.39 62.58 109.69
  Z
  M 36.54 97.00
  Q 37.04 98.83 38.19 99.31
  Q 42.27 101.03 44.00 97.29
  Q 45.03 93.88 42.72 92.38
  Q 40.75 91.10 38.54 92.04
  Q 35.81 93.21 36.54 97.00
  Z
  M 28.96 103.50
  Q 35.35 104.78 34.21 98.25
  Q 32.99 95.78 30.71 95.74
  Q 28.87 95.70 27.36 97.34
  Q 24.36 100.60 28.96 103.50
  Z
  M 46.50 98.46
  Q 45.67 99.78 46.44 101.31
  Q 48.13 104.69 51.75 103.71
  Q 55.21 102.07 54.00 98.50
  Q 52.82 95.01 48.93 95.88
  Q 46.83 96.36 46.50 98.46
  Z
  M 28.25 113.29
  Q 33.13 109.44 28.00 106.04
  Q 22.85 104.78 22.45 108.95
  Q 22.22 111.33 23.61 112.73
  Q 25.30 114.44 28.25 113.29
  Z
  M 52.71 106.00
  Q 49.91 107.15 50.25 110.25
  Q 50.51 112.58 52.71 113.25
  Q 56.20 114.44 57.70 112.06
  Q 58.94 110.10 57.96 107.87
  Q 56.66 104.92 52.71 106.00
  Z
  M 29.21 115.75
  Q 26.62 116.30 26.47 119.00
  Q 26.25 122.96 30.06 123.69
  Q 32.91 124.23 34.25 121.04
  Q 35.23 114.93 29.21 115.75
  Z
  M 46.46 121.00
  Q 47.70 123.70 50.21 123.62
  Q 52.26 123.54 53.58 121.69
  Q 55.85 118.50 51.75 115.79
  Q 45.32 114.71 46.46 121.00
  Z
  M 36.50 122.21
  Q 35.70 126.02 38.36 127.23
  Q 40.53 128.22 42.58 127.06
  Q 44.96 125.71 44.21 122.25
  Q 40.32 116.52 36.50 122.21
  Z"
/>
<path fill="#ec6c25" d="
  M 116.04 100.50
  Q 115.10 94.96 111.75 90.46
  Q 117.08 86.76 119.83 92.43
  Q 123.03 99.06 116.04 100.50
  Z"
/>
<path fill="#ec6c25" d="
  M 81.50 90.79
  Q 78.50 95.48 77.50 100.96
  Q 71.09 100.05 73.13 93.84
  Q 75.32 87.17 81.50 90.79
  Z"
/>
<path fill="#f3c280" d="
  M 111.75 90.46
  Q 115.10 94.96 116.04 100.50
  Q 110.18 102.59 104.19 100.81
  Q 102.35 100.26 103.50 98.25
  Q 106.45 93.10 111.75 90.46
  Z"
/>
<path fill="#f3c280" d="
  M 81.50 90.79
  Q 86.93 93.35 89.86 98.43
  Q 91.10 100.57 88.70 101.18
  Q 83.05 102.63 77.50 100.96
  Q 78.50 95.48 81.50 90.79
  Z"
/>
<path fill="#ec6c25" d="
  M 44.00 97.29
  L 36.54 97.00
  Q 35.81 93.21 38.54 92.04
  Q 40.75 91.10 42.72 92.38
  Q 45.03 93.88 44.00 97.29
  Z"
/>
<path fill="#ec6c25" d="
  M 34.21 98.25
  Q 30.99 100.30 28.96 103.50
  Q 24.36 100.60 27.36 97.34
  Q 28.87 95.70 30.71 95.74
  Q 32.99 95.78 34.21 98.25
  Z"
/>
<path fill="#ec6c25" d="
  M 51.75 103.71
  Q 49.95 100.26 46.50 98.46
  Q 46.83 96.36 48.93 95.88
  Q 52.82 95.01 54.00 98.50
  Q 55.21 102.07 51.75 103.71
  Z"
/>
<path fill="#f3c280" d="
  M 44.00 97.29
  Q 42.27 101.03 38.19 99.31
  Q 37.04 98.83 36.54 97.00
  L 44.00 97.29
  Z"
/>
<path fill="#f3c280" d="
  M 34.21 98.25
  Q 35.35 104.78 28.96 103.50
  Q 30.99 100.30 34.21 98.25
  Z"
/>
<path fill="#f3c280" d="
  M 46.50 98.46
  Q 49.95 100.26 51.75 103.71
  Q 48.13 104.69 46.44 101.31
  Q 45.67 99.78 46.50 98.46
  Z"
/>
<path fill="#f3c280" d="
  M 116.50 104.79
  Q 115.16 110.23 112.00 114.79
  Q 106.81 112.36 103.74 107.49
  Q 102.45 105.43 104.72 104.56
  Q 110.27 102.43 116.50 104.79
  Z"
/>
<path fill="#f3c280" d="
  M 81.54 115.25
  Q 78.91 110.48 77.25 105.29
  Q 82.71 102.99 88.10 104.40
  Q 91.30 105.23 89.57 108.05
  Q 86.62 112.85 81.54 115.25
  Z"
/>
<path fill="#ec6c25" d="
  M 116.50 104.79
  Q 122.56 106.11 120.32 112.07
  Q 117.88 118.53 112.00 114.79
  Q 115.16 110.23 116.50 104.79
  Z"
/>
<path fill="#ec6c25" d="
  M 77.25 105.29
  Q 78.91 110.48 81.54 115.25
  Q 78.52 117.74 75.81 115.94
  Q 74.28 114.92 73.36 112.66
  Q 72.49 110.51 72.84 108.75
  Q 73.46 105.68 77.25 105.29
  Z"
/>
<path fill="#ec6c25" d="
  M 28.00 106.04
  Q 26.80 109.74 28.25 113.29
  Q 25.30 114.44 23.61 112.73
  Q 22.22 111.33 22.45 108.95
  Q 22.85 104.78 28.00 106.04
  Z"
/>
<path fill="#ec6c25" d="
  M 52.71 113.25
  Q 53.60 109.61 52.71 106.00
  Q 56.66 104.92 57.96 107.87
  Q 58.94 110.10 57.70 112.06
  Q 56.20 114.44 52.71 113.25
  Z"
/>
<path fill="#f3c280" d="
  M 28.00 106.04
  Q 33.13 109.44 28.25 113.29
  Q 26.80 109.74 28.00 106.04
  Z"
/>
<path fill="#f3c280" d="
  M 52.71 106.00
  Q 53.60 109.61 52.71 113.25
  Q 50.51 112.58 50.25 110.25
  Q 49.91 107.15 52.71 106.00
  Z"
/>
<path fill="#f3c280" d="
  M 109.04 117.75
  Q 104.64 121.28 99.04 122.25
  Q 97.12 117.00 98.25 111.48
  Q 98.95 108.10 101.92 109.85
  Q 106.47 112.51 109.04 117.75
  Z"
/>
<path fill="#f3c280" d="
  M 94.96 122.00
  Q 89.29 121.42 84.71 118.00
  Q 87.25 112.50 92.06 109.84
  Q 94.56 108.46 95.25 111.24
  Q 96.58 116.67 94.96 122.00
  Z"
/>
<path fill="#f3c280" d="
  M 34.25 121.04
  Q 30.76 119.27 29.21 115.75
  Q 35.23 114.93 34.25 121.04
  Z"
/>
<path fill="#f3c280" d="
  M 51.75 115.79
  Q 49.66 118.97 46.46 121.00
  Q 45.32 114.71 51.75 115.79
  Z"
/>
<path fill="#ec6c25" d="
  M 29.21 115.75
  Q 30.76 119.27 34.25 121.04
  Q 32.91 124.23 30.06 123.69
  Q 26.25 122.96 26.47 119.00
  Q 26.62 116.30 29.21 115.75
  Z"
/>
<path fill="#ec6c25" d="
  M 51.75 115.79
  Q 55.85 118.50 53.58 121.69
  Q 52.26 123.54 50.21 123.62
  Q 47.70 123.70 46.46 121.00
  Q 49.66 118.97 51.75 115.79
  Z"
/>
<path fill="#ec6c25" d="
  M 109.04 117.75
  Q 112.65 122.33 108.06 125.31
  Q 101.26 129.74 99.04 122.25
  Q 104.64 121.28 109.04 117.75
  Z"
/>
<path fill="#ec6c25" d="
  M 84.71 118.00
  Q 89.29 121.42 94.96 122.00
  Q 94.12 127.89 88.56 126.69
  Q 80.84 125.03 84.71 118.00
  Z"
/>
<path fill="#f3c280" d="
  M 44.21 122.25
  L 36.50 122.21
  Q 40.32 116.52 44.21 122.25
  Z"
/>
<path fill="#ec6c25" d="
  M 44.21 122.25
  Q 44.96 125.71 42.58 127.06
  Q 40.53 128.22 38.36 127.23
  Q 35.70 126.02 36.50 122.21
  L 44.21 122.25
  Z"
/>
<path fill="#293738" d="
  M 133.21 130.50
  L 133.25 165.96
  Q 123.15 160.83 115.19 155.81
  Q 112.64 154.20 110.56 155.86
  Q 110.11 156.22 109.70 156.28
  Q 107.25 156.68 104.28 155.34
  C 103.95 155.19 103.56 155.43 103.56 155.80
  Q 103.47 162.16 103.49 168.70
  Q 103.50 172.91 103.41 173.27
  Q 102.70 176.00 98.75 176.00
  Q 86.97 176.00 75.18 176.00
  Q 74.01 176.00 73.49 176.53
  Q 72.59 177.44 73.75 178.75
  Q 76.21 181.52 77.37 184.37
  Q 78.68 187.56 78.82 188.05
  Q 79.46 190.15 78.50 192.17
  C 78.08 193.05 78.06 194.05 78.44 194.92
  L 113.04 273.75
  L 114.28 275.96
  C 114.41 276.19 114.25 276.49 113.96 276.55
  Q 111.50 277.10 109.05 276.56
  C 108.79 276.50 108.62 276.23 108.67 275.96
  Q 109.02 273.93 107.71 272.25
  L 74.39 196.01
  C 74.26 195.72 74.01 195.51 73.71 195.43
  Q 71.62 194.92 69.54 195.43
  C 69.26 195.50 69.06 195.76 69.06 196.07
  L 69.04 269.25
  Q 68.97 273.25 68.79 277.24
  Q 68.70 279.08 69.67 280.53
  Q 70.48 281.75 69.02 281.75
  L 64.67 281.75
  C 64.34 281.75 64.09 281.44 64.17 281.12
  Q 65.54 275.21 64.96 269.50
  L 65.00 196.01
  C 65.00 195.71 64.80 195.45 64.52 195.39
  Q 62.40 194.94 60.30 195.44
  C 59.99 195.51 59.74 195.72 59.61 196.01
  L 26.25 272.21
  Q 25.10 273.75 25.19 275.64
  C 25.21 276.10 24.88 276.50 24.43 276.57
  Q 17.13 277.70 20.96 273.50
  L 55.44 195.09
  Q 56.14 193.50 55.46 191.86
  Q 54.51 189.60 55.42 187.00
  C 55.51 186.73 55.30 186.46 55.01 186.48
  Q 51.99 186.73 49.12 187.14
  Q 47.57 187.35 44.63 188.61
  Q 40.64 190.31 36.17 189.42
  C 35.85 189.36 35.58 189.16 35.42 188.88
  Q 33.48 185.47 37.75 184.75
  Q 39.52 184.45 43.75 184.27
  C 44.04 184.26 44.36 184.35 44.66 184.54
  L 45.82 185.26
  C 46.05 185.41 46.38 185.47 46.75 185.42
  L 55.24 184.44
  C 55.81 184.38 56.34 184.05 56.70 183.55
  L 60.08 178.82
  Q 61.89 176.29 58.96 176.19
  Q 51.24 175.92 43.53 175.97
  Q 37.80 176.00 37.48 175.93
  Q 33.60 175.04 34.30 169.35
  Q 34.46 168.04 33.27 168.61
  Q 29.99 170.16 27.57 173.10
  C 27.33 173.39 27.05 173.58 26.78 173.63
  Q 25.78 173.84 24.97 173.29
  Q 24.27 172.81 24.15 171.83
  Q 23.77 168.70 27.50 169.17
  C 27.89 169.22 28.23 169.18 28.46 169.05
  L 33.84 166.03
  C 34.10 165.89 34.26 165.59 34.26 165.25
  L 34.24 150.13
  C 34.23 149.69 33.89 149.33 33.45 149.31
  Q 28.81 149.07 25.14 150.10
  C 24.82 150.19 24.50 149.97 24.49 149.65
  L 24.30 140.04
  C 24.29 139.58 24.73 139.25 25.20 139.35
  Q 29.30 140.23 33.37 139.94
  C 34.00 139.89 34.46 139.32 34.37 138.70
  Q 33.73 134.03 39.00 134.02
  Q 68.94 134.00 98.88 134.00
  Q 101.26 134.00 102.32 135.00
  Q 103.82 136.40 103.59 138.83
  Q 103.50 139.80 103.54 140.18
  Q 103.75 142.53 105.16 140.60
  C 105.37 140.31 105.65 140.13 105.93 140.12
  L 109.51 139.98
  C 109.77 139.97 110.08 140.10 110.36 140.34
  Q 112.60 142.29 115.48 140.50
  Q 124.12 135.10 133.21 130.50
  Z"
/>
<path fill="#ec6c25" d="
  M 64.96 269.50
  Q 64.76 269.67 64.54 269.81
  Q 64.33 269.94 64.05 269.93
  Q 45.04 269.37 26.25 272.21
  L 59.61 196.01
  C 59.74 195.72 59.99 195.51 60.30 195.44
  Q 62.40 194.94 64.52 195.39
  C 64.80 195.45 65.00 195.71 65.00 196.01
  L 64.96 269.50
  Z"
/>
<path fill="#ec6c25" d="
  M 107.71 272.25
  Q 88.02 269.59 70.00 269.75
  Q 69.25 269.76 69.04 269.25
  L 69.06 196.07
  C 69.06 195.76 69.26 195.50 69.54 195.43
  Q 71.62 194.92 73.71 195.43
  C 74.01 195.51 74.26 195.72 74.39 196.01
  L 107.71 272.25
  Z"
/>
<path fill="#b9571a" d="
  M 69.04 269.25
  Q 69.25 269.76 70.00 269.75
  Q 88.02 269.59 107.71 272.25
  Q 109.02 273.93 108.67 275.96
  C 108.62 276.23 108.79 276.50 109.05 276.56
  Q 111.50 277.10 113.96 276.55
  C 114.25 276.49 114.41 276.19 114.28 275.96
  L 113.04 273.75
  Q 117.81 273.54 121.83 276.20
  Q 124.14 277.73 121.71 279.06
  Q 118.09 281.04 113.77 281.86
  Q 103.10 283.88 92.26 284.69
  Q 56.89 287.32 21.77 282.34
  Q 15.78 281.48 10.31 278.94
  Q 8.16 277.94 9.94 276.69
  Q 14.89 273.20 20.96 273.50
  Q 17.13 277.70 24.43 276.57
  C 24.88 276.50 25.21 276.10 25.19 275.64
  Q 25.10 273.75 26.25 272.21
  Q 45.04 269.37 64.05 269.93
  Q 64.33 269.94 64.54 269.81
  Q 64.76 269.67 64.96 269.50
  Q 65.54 275.21 64.17 281.12
  C 64.09 281.44 64.34 281.75 64.67 281.75
  L 69.02 281.75
  Q 70.48 281.75 69.67 280.53
  Q 68.70 279.08 68.79 277.24
  Q 68.97 273.25 69.04 269.25
  Z"
/>
</svg>
