<?xml version="1.0" encoding="UTF-8" standalone="no"?>
<!DOCTYPE svg PUBLIC "-//W3C//DTD SVG 1.1//EN" "http://www.w3.org/Graphics/SVG/1.1/DTD/svg11.dtd">
<svg xmlns="http://www.w3.org/2000/svg" version="1.1" viewBox="0 0 225 225">
<g stroke-width="5.0" fill="none" stroke-linecap="butt">
<path stroke="#467974" vector-effect="non-scaling-stroke" d="
  M 37.96 59.56
  L 38.32 83.94
  C 38.33 84.26 38.54 84.52 38.80 84.53
  L 44.56 84.64
  C 44.84 84.65 45.07 84.39 45.08 84.06
  Q 45.55 72.39 44.97 60.11
  C 44.94 59.51 45.43 59.00 46.03 59.00
  L 53.26 59.00
  C 53.81 59.00 54.25 58.56 54.25 58.01
  L 54.25 53.30
  C 54.25 53.00 54.00 52.75 53.70 52.75
  L 29.75 52.75
  C 29.45 52.75 29.20 52.95 29.14 53.24
  Q 28.61 55.81 29.29 58.33
  C 29.37 58.63 29.63 58.83 29.93 58.84
  L 37.44 59.06
  C 37.73 59.07 37.95 59.29 37.96 59.56"
/>
<path stroke="#267483" vector-effect="non-scaling-stroke" d="
  M 109.06 59.32
  L 122.31 59.08
  C 122.63 59.07 122.88 58.85 122.88 58.57
  L 122.91 53.73
  C 122.92 53.19 122.45 52.75 121.87 52.76
  L 102.07 52.81
  C 101.79 52.81 101.55 53.03 101.54 53.31
  Q 100.87 66.53 101.55 79.75
  Q 101.67 81.90 101.32 83.67
  C 101.21 84.23 101.63 84.75 102.19 84.74
  L 123.30 84.58
  C 123.63 84.57 123.89 84.35 123.88 84.07
  L 123.82 78.70
  C 123.81 78.45 123.58 78.25 123.29 78.25
  L 109.12 78.25
  C 108.73 78.25 108.42 77.91 108.41 77.49
  L 108.36 72.42
  C 108.36 72.04 108.66 71.73 109.02 71.73
  L 121.57 71.59
  C 121.88 71.58 122.13 71.35 122.13 71.07
  L 122.16 66.24
  C 122.17 65.69 121.67 65.23 121.04 65.22
  L 109.19 65.09
  C 108.88 65.08 108.64 64.85 108.63 64.57
  L 108.52 59.81
  C 108.51 59.54 108.76 59.32 109.06 59.32"
/>
<path stroke="#2e7580" vector-effect="non-scaling-stroke" d="
  M 74.50 70.71
  L 84.07 70.91
  C 84.35 70.92 84.57 71.15 84.58 71.44
  L 84.92 84.06
  C 84.93 84.37 85.16 84.61 85.44 84.62
  L 91.14 84.70
  C 91.51 84.71 91.82 84.38 91.82 83.97
  L 91.93 53.47
  C 91.94 53.07 91.63 52.75 91.24 52.75
  L 85.56 52.80
  C 85.26 52.80 85.02 53.03 85.01 53.32
  L 84.84 63.63
  C 84.83 64.13 84.43 64.53 83.94 64.54
  L 75.75 64.71"
/>
<path stroke="#38787b" vector-effect="non-scaling-stroke" d="
  M 75.75 64.71
  L 71.79 64.55
  C 71.53 64.54 71.33 64.27 71.32 63.94
  L 71.09 53.43
  C 71.08 53.13 70.85 52.90 70.56 52.89
  L 64.81 52.78
  C 64.54 52.77 64.31 53.02 64.31 53.32
  L 64.25 83.88
  C 64.25 84.36 64.64 84.75 65.13 84.75
  L 70.39 84.75
  C 70.86 84.75 71.25 84.36 71.25 83.87
  L 71.30 71.56
  C 71.30 71.31 71.52 71.10 71.82 71.06
  L 74.50 70.71"
/>
<path stroke="#62c7b8" vector-effect="non-scaling-stroke" d="
  M 75.75 64.71
  L 77.46 65.07
  Q 77.92 65.17 77.45 65.29
  Q 76.55 65.53 76.98 65.84
  C 77.27 66.04 77.43 66.32 77.41 66.56
  Q 77.26 68.12 76.32 69.36
  Q 76.22 69.49 76.04 70.23
  Q 75.89 70.84 74.50 70.71"
/>
<path stroke="#0f708e" vector-effect="non-scaling-stroke" d="
  M 195.07 67.95
  C 195.07 59.62 188.32 52.87 179.99 52.87
  L 149.03 52.87
  C 140.70 52.87 133.95 59.62 133.95 67.95
  L 133.95 69.53
  C 133.95 77.86 140.70 84.61 149.03 84.61
  L 179.99 84.61
  C 188.32 84.61 195.07 77.86 195.07 69.53
  L 195.07 67.95"
/>
<path stroke="#3d7879" vector-effect="non-scaling-stroke" d="
  M 40.54 114.25
  Q 42.09 119.40 43.87 124.48
  Q 45.06 127.87 45.15 127.97
  Q 46.32 129.34 49.55 128.77
  C 50.34 128.63 50.99 128.07 51.24 127.32
  L 58.40 106.04
  Q 58.63 105.38 58.99 105.81
  Q 59.29 106.16 59.25 107.00
  Q 58.98 113.26 59.42 128.32
  C 59.43 128.64 59.66 128.89 59.94 128.88
  L 65.74 128.79
  C 66.02 128.78 66.25 128.52 66.25 128.19
  L 66.19 97.81
  C 66.19 97.52 65.98 97.28 65.70 97.25
  Q 60.95 96.68 56.18 97.14
  C 55.87 97.17 55.60 97.37 55.50 97.65
  L 48.72 116.59
  Q 48.29 117.80 47.80 116.63
  L 46.29 113.00"
/>
<path stroke="#467974" vector-effect="non-scaling-stroke" d="
  M 46.29 113.00
  L 41.00 97.80
  C 40.83 97.32 40.38 96.99 39.87 97.00
  L 31.30 97.04
  C 30.74 97.05 30.28 97.51 30.29 98.07
  L 30.42 128.30
  C 30.43 128.62 30.66 128.88 30.93 128.86
  L 36.69 128.54
  C 36.97 128.53 37.18 128.26 37.17 127.94
  Q 36.83 117.13 37.22 106.32
  Q 37.27 104.99 37.64 106.04
  Q 39.06 110.15 40.54 114.25"
/>
<path stroke="#7fcbab" vector-effect="non-scaling-stroke" d="
  M 46.29 113.00
  Q 43.62 114.62 40.54 114.25"
/>
<path stroke="#2e7580" vector-effect="non-scaling-stroke" d="
  M 106.83 112.94
  C 106.83 104.18 99.72 97.07 90.96 97.07
  C 82.20 97.07 75.09 104.18 75.09 112.94
  C 75.09 121.70 82.20 128.81 90.96 128.81
  C 99.72 128.81 106.83 121.70 106.83 112.94"
/>
<path stroke="#1f7286" vector-effect="non-scaling-stroke" d="
  M 126.50 117.23
  L 118.86 97.78
  C 118.73 97.45 118.47 97.23 118.19 97.22
  L 111.64 97.11
  C 111.19 97.10 110.89 97.59 111.07 98.04
  L 122.77 127.31
  C 123.04 127.99 123.62 128.46 124.25 128.50
  L 128.51 128.81
  C 128.78 128.83 129.06 128.62 129.19 128.29
  L 141.76 97.77
  C 141.87 97.50 141.71 97.21 141.45 97.21
  L 135.61 97.13
  C 135.02 97.12 134.45 97.56 134.20 98.21
  L 126.87 117.23
  Q 126.69 117.70 126.50 117.23"
/>
<path stroke="#13718c" vector-effect="non-scaling-stroke" d="
  M 159.7773 97.2761
  C 159.78 97.13 159.66 97.01 159.5077 97.0057
  L 153.0477 96.9944
  C 152.90 96.99 152.78 97.11 152.7773 97.2639
  L 152.7227 128.5039
  C 152.72 128.65 152.84 128.77 152.9923 128.7743
  L 159.4523 128.7856
  C 159.60 128.79 159.72 128.67 159.7227 128.5161
  L 159.7773 97.2761"
/>
<path stroke="#086f92" vector-effect="non-scaling-stroke" d="
  M 179.79 121.95
  L 179.76 116.50
  C 179.75 116.09 180.10 115.75 180.52 115.75
  L 192.81 115.81
  C 193.10 115.81 193.34 115.60 193.36 115.32
  L 193.68 109.97
  C 193.71 109.52 193.32 109.16 192.86 109.21
  Q 187.00 109.82 180.30 109.13
  C 180.00 109.10 179.77 108.85 179.77 108.56
  L 179.79 104.07
  C 179.79 103.79 180.03 103.56 180.32 103.56
  L 193.69 103.44
  C 193.99 103.44 194.24 103.22 194.25 102.94
  L 194.50 97.94
  C 194.52 97.43 194.09 97.00 193.55 97.00
  L 173.41 97.00
  C 173.05 97.00 172.75 97.30 172.75 97.66
  L 172.75 128.20
  C 172.75 128.50 173.00 128.75 173.30 128.75
  L 194.41 128.82
  C 194.85 128.82 195.21 128.48 195.21 128.06
  L 195.22 123.11
  C 195.23 122.73 194.90 122.41 194.50 122.41
  L 180.32 122.45
  C 180.03 122.45 179.80 122.23 179.79 121.95"
/>
<path stroke="#417977" vector-effect="non-scaling-stroke" d="
  M 65.50 141.29
  Q 59.48 141.24 53.47 141.24
  Q 46.16 141.25 45.54 141.33
  Q 41.41 141.90 38.06 144.56
  Q 32.49 148.99 31.87 155.39
  Q 31.28 161.42 34.89 166.49
  Q 39.64 173.16 49.25 173.23
  Q 57.13 173.28 65.00 173.21"
/>
<path stroke="#2e7580" vector-effect="non-scaling-stroke" d="
  M 65.00 173.21
  Q 83.71 173.41 102.42 173.09
  Q 108.73 172.98 111.86 171.61
  Q 116.80 169.46 119.23 164.88
  Q 122.48 158.77 120.26 151.88
  Q 118.23 145.55 112.00 142.78
  Q 108.59 141.26 101.75 141.14
  Q 83.63 140.84 65.50 141.29"
/>
<path stroke="#6ac8b5" vector-effect="non-scaling-stroke" d="
  M 65.00 173.21
  Q 68.58 173.51 67.33 171.88
  C 67.12 171.61 67.01 171.29 67.01 170.99
  Q 67.04 168.29 66.44 160.81
  Q 66.21 158.02 66.48 144.98
  Q 66.49 144.62 66.80 143.60
  Q 67.10 142.60 66.15 142.09
  C 66.09 142.06 66.01 141.87 65.94 141.62
  Q 65.89 141.44 65.50 141.29"
/>
<path stroke="#17718a" vector-effect="non-scaling-stroke" d="
  M 155.31 145.19
  Q 150.09 141.27 142.75 141.15
  Q 137.24 141.07 131.74 141.46
  C 131.46 141.48 131.25 141.71 131.25 141.99
  L 131.31 172.44
  C 131.31 172.72 131.53 172.95 131.81 172.96
  Q 137.14 173.21 142.45 172.93
  Q 149.50 172.57 153.15 170.44
  Q 160.35 166.26 160.52 156.50
  Q 160.65 149.20 155.31 145.19"
/>
<path stroke="#086f92" vector-effect="non-scaling-stroke" d="
  M 189.97 156.41
  Q 193.42 154.00 193.94 152.19
  Q 195.43 146.96 192.38 143.99
  Q 190.33 142.00 185.55 141.54
  Q 179.36 140.94 172.22 141.34
  C 171.54 141.37 171.00 141.94 171.00 142.62
  L 171.00 172.24
  C 171.00 172.64 171.32 172.96 171.72 172.97
  Q 180.26 173.16 187.50 172.75
  Q 191.83 172.51 194.16 169.36
  Q 196.35 166.40 195.79 162.76
  Q 195.09 158.27 190.05 156.82
  Q 189.58 156.68 189.97 156.41"
/>
<path stroke="#17718a" vector-effect="non-scaling-stroke" d="
  M 149.81 149.94
  Q 145.17 146.97 139.06 147.74
  C 138.78 147.78 138.57 148.03 138.56 148.32
  L 138.30 165.86
  C 138.30 166.15 138.51 166.40 138.80 166.44
  Q 142.86 166.99 146.42 165.99
  Q 149.80 165.03 151.39 162.95
  Q 153.14 160.65 153.25 157.00
  Q 153.39 152.23 149.81 149.94"
/>
<path stroke="#086f92" vector-effect="non-scaling-stroke" d="
  M 185.83 147.94
  Q 182.27 146.86 178.56 147.25
  C 178.26 147.28 178.04 147.53 178.04 147.81
  L 178.03 153.10
  C 178.03 153.54 178.38 153.91 178.83 153.94
  Q 181.64 154.12 183.52 153.99
  Q 187.68 153.70 187.27 149.70
  C 187.19 148.88 186.62 148.18 185.83 147.94"
/>
<path stroke="#086f92" vector-effect="non-scaling-stroke" d="
  M 184.95 160.23
  Q 181.86 159.64 178.68 160.11
  C 178.36 160.16 178.13 160.40 178.13 160.69
  L 178.07 166.17
  C 178.06 166.53 178.36 166.84 178.75 166.88
  Q 182.65 167.26 185.67 166.76
  Q 187.38 166.47 188.21 165.27
  Q 189.46 163.45 188.27 161.92
  Q 187.29 160.68 184.95 160.23"
/>
</g>
<path fill="#042642" d="
  M 0.00 0.00
  Q 112.50 0.00 225.00 0.00
  Q 225.00 112.50 225.00 225.00
  Q 112.50 225.00 0.00 225.00
  Q 0.00 112.50 0.00 0.00
  Z
  M 37.96 59.56
  L 38.32 83.94
  C 38.33 84.26 38.54 84.52 38.80 84.53
  L 44.56 84.64
  C 44.84 84.65 45.07 84.39 45.08 84.06
  Q 45.55 72.39 44.97 60.11
  C 44.94 59.51 45.43 59.00 46.03 59.00
  L 53.26 59.00
  C 53.81 59.00 54.25 58.56 54.25 58.01
  L 54.25 53.30
  C 54.25 53.00 54.00 52.75 53.70 52.75
  L 29.75 52.75
  C 29.45 52.75 29.20 52.95 29.14 53.24
  Q 28.61 55.81 29.29 58.33
  C 29.37 58.63 29.63 58.83 29.93 58.84
  L 37.44 59.06
  C 37.73 59.07 37.95 59.29 37.96 59.56
  Z
  M 109.06 59.32
  L 122.31 59.08
  C 122.63 59.07 122.88 58.85 122.88 58.57
  L 122.91 53.73
  C 122.92 53.19 122.45 52.75 121.87 52.76
  L 102.07 52.81
  C 101.79 52.81 101.55 53.03 101.54 53.31
  Q 100.87 66.53 101.55 79.75
  Q 101.67 81.90 101.32 83.67
  C 101.21 84.23 101.63 84.75 102.19 84.74
  L 123.30 84.58
  C 123.63 84.57 123.89 84.35 123.88 84.07
  L 123.82 78.70
  C 123.81 78.45 123.58 78.25 123.29 78.25
  L 109.12 78.25
  C 108.73 78.25 108.42 77.91 108.41 77.49
  L 108.36 72.42
  C 108.36 72.04 108.66 71.73 109.02 71.73
  L 121.57 71.59
  C 121.88 71.58 122.13 71.35 122.13 71.07
  L 122.16 66.24
  C 122.17 65.69 121.67 65.23 121.04 65.22
  L 109.19 65.09
  C 108.88 65.08 108.64 64.85 108.63 64.57
  L 108.52 59.81
  C 108.51 59.54 108.76 59.32 109.06 59.32
  Z
  M 74.50 70.71
  L 84.07 70.91
  C 84.35 70.92 84.57 71.15 84.58 71.44
  L 84.92 84.06
  C 84.93 84.37 85.16 84.61 85.44 84.62
  L 91.14 84.70
  C 91.51 84.71 91.82 84.38 91.82 83.97
  L 91.93 53.47
  C 91.94 53.07 91.63 52.75 91.24 52.75
  L 85.56 52.80
  C 85.26 52.80 85.02 53.03 85.01 53.32
  L 84.84 63.63
  C 84.83 64.13 84.43 64.53 83.94 64.54
  L 75.75 64.71
  L 71.79 64.55
  C 71.53 64.54 71.33 64.27 71.32 63.94
  L 71.09 53.43
  C 71.08 53.13 70.85 52.90 70.56 52.89
  L 64.81 52.78
  C 64.54 52.77 64.31 53.02 64.31 53.32
  L 64.25 83.88
  C 64.25 84.36 64.64 84.75 65.13 84.75
  L 70.39 84.75
  C 70.86 84.75 71.25 84.36 71.25 83.87
  L 71.30 71.56
  C 71.30 71.31 71.52 71.10 71.82 71.06
  L 74.50 70.71
  Z
  M 195.07 67.95
  C 195.07 59.62 188.32 52.87 179.99 52.87
  L 149.03 52.87
  C 140.70 52.87 133.95 59.62 133.95 67.95
  L 133.95 69.53
  C 133.95 77.86 140.70 84.61 149.03 84.61
  L 179.99 84.61
  C 188.32 84.61 195.07 77.86 195.07 69.53
  L 195.07 67.95
  Z
  M 40.54 114.25
  Q 42.09 119.40 43.87 124.48
  Q 45.06 127.87 45.15 127.97
  Q 46.32 129.34 49.55 128.77
  C 50.34 128.63 50.99 128.07 51.24 127.32
  L 58.40 106.04
  Q 58.63 105.38 58.99 105.81
  Q 59.29 106.16 59.25 107.00
  Q 58.98 113.26 59.42 128.32
  C 59.43 128.64 59.66 128.89 59.94 128.88
  L 65.74 128.79
  C 66.02 128.78 66.25 128.52 66.25 128.19
  L 66.19 97.81
  C 66.19 97.52 65.98 97.28 65.70 97.25
  Q 60.95 96.68 56.18 97.14
  C 55.87 97.17 55.60 97.37 55.50 97.65
  L 48.72 116.59
  Q 48.29 117.80 47.80 116.63
  L 46.29 113.00
  L 41.00 97.80
  C 40.83 97.32 40.38 96.99 39.87 97.00
  L 31.30 97.04
  C 30.74 97.05 30.28 97.51 30.29 98.07
  L 30.42 128.30
  C 30.43 128.62 30.66 128.88 30.93 128.86
  L 36.69 128.54
  C 36.97 128.53 37.18 128.26 37.17 127.94
  Q 36.83 117.13 37.22 106.32
  Q 37.27 104.99 37.64 106.04
  Q 39.06 110.15 40.54 114.25
  Z
  M 106.83 112.94
  C 106.83 104.18 99.72 97.07 90.96 97.07
  C 82.20 97.07 75.09 104.18 75.09 112.94
  C 75.09 121.70 82.20 128.81 90.96 128.81
  C 99.72 128.81 106.83 121.70 106.83 112.94
  Z
  M 126.50 117.23
  L 118.86 97.78
  C 118.73 97.45 118.47 97.23 118.19 97.22
  L 111.64 97.11
  C 111.19 97.10 110.89 97.59 111.07 98.04
  L 122.77 127.31
  C 123.04 127.99 123.62 128.46 124.25 128.50
  L 128.51 128.81
  C 128.78 128.83 129.06 128.62 129.19 128.29
  L 141.76 97.77
  C 141.87 97.50 141.71 97.21 141.45 97.21
  L 135.61 97.13
  C 135.02 97.12 134.45 97.56 134.20 98.21
  L 126.87 117.23
  Q 126.69 117.70 126.50 117.23
  Z
  M 159.7773 97.2761
  C 159.78 97.13 159.66 97.01 159.5077 97.0057
  L 153.0477 96.9944
  C 152.90 96.99 152.78 97.11 152.7773 97.2639
  L 152.7227 128.5039
  C 152.72 128.65 152.84 128.77 152.9923 128.7743
  L 159.4523 128.7856
  C 159.60 128.79 159.72 128.67 159.7227 128.5161
  L 159.7773 97.2761
  Z
  M 179.79 121.95
  L 179.76 116.50
  C 179.75 116.09 180.10 115.75 180.52 115.75
  L 192.81 115.81
  C 193.10 115.81 193.34 115.60 193.36 115.32
  L 193.68 109.97
  C 193.71 109.52 193.32 109.16 192.86 109.21
  Q 187.00 109.82 180.30 109.13
  C 180.00 109.10 179.77 108.85 179.77 108.56
  L 179.79 104.07
  C 179.79 103.79 180.03 103.56 180.32 103.56
  L 193.69 103.44
  C 193.99 103.44 194.24 103.22 194.25 102.94
  L 194.50 97.94
  C 194.52 97.43 194.09 97.00 193.55 97.00
  L 173.41 97.00
  C 173.05 97.00 172.75 97.30 172.75 97.66
  L 172.75 128.20
  C 172.75 128.50 173.00 128.75 173.30 128.75
  L 194.41 128.82
  C 194.85 128.82 195.21 128.48 195.21 128.06
  L 195.22 123.11
  C 195.23 122.73 194.90 122.41 194.50 122.41
  L 180.32 122.45
  C 180.03 122.45 179.80 122.23 179.79 121.95
  Z
  M 65.50 141.29
  Q 59.48 141.24 53.47 141.24
  Q 46.16 141.25 45.54 141.33
  Q 41.41 141.90 38.06 144.56
  Q 32.49 148.99 31.87 155.39
  Q 31.28 161.42 34.89 166.49
  Q 39.64 173.16 49.25 173.23
  Q 57.13 173.28 65.00 173.21
  Q 83.71 173.41 102.42 173.09
  Q 108.73 172.98 111.86 171.61
  Q 116.80 169.46 119.23 164.88
  Q 122.48 158.77 120.26 151.88
  Q 118.23 145.55 112.00 142.78
  Q 108.59 141.26 101.75 141.14
  Q 83.63 140.84 65.50 141.29
  Z
  M 155.31 145.19
  Q 150.09 141.27 142.75 141.15
  Q 137.24 141.07 131.74 141.46
  C 131.46 141.48 131.25 141.71 131.25 141.99
  L 131.31 172.44
  C 131.31 172.72 131.53 172.95 131.81 172.96
  Q 137.14 173.21 142.45 172.93
  Q 149.50 172.57 153.15 170.44
  Q 160.35 166.26 160.52 156.50
  Q 160.65 149.20 155.31 145.19
  Z
  M 189.97 156.41
  Q 193.42 154.00 193.94 152.19
  Q 195.43 146.96 192.38 143.99
  Q 190.33 142.00 185.55 141.54
  Q 179.36 140.94 172.22 141.34
  C 171.54 141.37 171.00 141.94 171.00 142.62
  L 171.00 172.24
  C 171.00 172.64 171.32 172.96 171.72 172.97
  Q 180.26 173.16 187.50 172.75
  Q 191.83 172.51 194.16 169.36
  Q 196.35 166.40 195.79 162.76
  Q 195.09 158.27 190.05 156.82
  Q 189.58 156.68 189.97 156.41
  Z"
/>
<path fill="#88cca6" d="
  M 37.44 59.06
  L 29.93 58.84
  C 29.63 58.83 29.37 58.63 29.29 58.33
  Q 28.61 55.81 29.14 53.24
  C 29.20 52.95 29.45 52.75 29.75 52.75
  L 53.70 52.75
  C 54.00 52.75 54.25 53.00 54.25 53.30
  L 54.25 58.01
  C 54.25 58.56 53.81 59.00 53.26 59.00
  L 46.03 59.00
  C 45.43 59.00 44.94 59.51 44.97 60.11
  Q 45.55 72.39 45.08 84.06
  C 45.07 84.39 44.84 84.65 44.56 84.64
  L 38.80 84.53
  C 38.54 84.52 38.33 84.26 38.32 83.94
  L 37.96 59.56
  C 37.95 59.29 37.73 59.07 37.44 59.06
  Z"
/>
<path fill="#47c2c3" d="
  M 108.52 59.81
  L 108.63 64.57
  C 108.64 64.85 108.88 65.08 109.19 65.09
  L 121.04 65.22
  C 121.67 65.23 122.17 65.69 122.16 66.24
  L 122.13 71.07
  C 122.13 71.35 121.88 71.58 121.57 71.59
  L 109.02 71.73
  C 108.66 71.73 108.36 72.04 108.36 72.42
  L 108.41 77.49
  C 108.42 77.91 108.73 78.25 109.12 78.25
  L 123.29 78.25
  C 123.58 78.25 123.81 78.45 123.82 78.70
  L 123.88 84.07
  C 123.89 84.35 123.63 84.57 123.30 84.58
  L 102.19 84.74
  C 101.63 84.75 101.21 84.23 101.32 83.67
  Q 101.67 81.90 101.55 79.75
  Q 100.87 66.53 101.54 53.31
  C 101.55 53.03 101.79 52.81 102.07 52.81
  L 121.87 52.76
  C 122.45 52.75 122.92 53.19 122.91 53.73
  L 122.88 58.57
  C 122.88 58.85 122.63 59.07 122.31 59.08
  L 109.06 59.32
  C 108.76 59.32 108.51 59.54 108.52 59.81
  Z"
/>
<path fill="#6cc9b3" d="
  M 75.75 64.71
  L 77.46 65.07
  Q 77.92 65.17 77.45 65.29
  Q 76.55 65.53 76.98 65.84
  C 77.27 66.04 77.43 66.32 77.41 66.56
  Q 77.26 68.12 76.32 69.36
  Q 76.22 69.49 76.04 70.23
  Q 75.89 70.84 74.50 70.71
  L 71.82 71.06
  C 71.52 71.10 71.30 71.31 71.30 71.56
  L 71.25 83.87
  C 71.25 84.36 70.86 84.75 70.39 84.75
  L 65.13 84.75
  C 64.64 84.75 64.25 84.36 64.25 83.88
  L 64.31 53.32
  C 64.31 53.02 64.54 52.77 64.81 52.78
  L 70.56 52.89
  C 70.85 52.90 71.08 53.13 71.09 53.43
  L 71.32 63.94
  C 71.33 64.27 71.53 64.54 71.79 64.55
  L 75.75 64.71
  Z"
/>
<path fill="#57c4bd" d="
  M 74.50 70.71
  Q 75.89 70.84 76.04 70.23
  Q 76.22 69.49 76.32 69.36
  Q 77.26 68.12 77.41 66.56
  C 77.43 66.32 77.27 66.04 76.98 65.84
  Q 76.55 65.53 77.45 65.29
  Q 77.92 65.17 77.46 65.07
  L 75.75 64.71
  L 83.94 64.54
  C 84.43 64.53 84.83 64.13 84.84 63.63
  L 85.01 53.32
  C 85.02 53.03 85.26 52.80 85.56 52.80
  L 91.24 52.75
  C 91.63 52.75 91.94 53.07 91.93 53.47
  L 91.82 83.97
  C 91.82 84.38 91.51 84.71 91.14 84.70
  L 85.44 84.62
  C 85.16 84.61 84.93 84.37 84.92 84.06
  L 84.58 71.44
  C 84.57 71.15 84.35 70.92 84.07 70.91
  L 74.50 70.71
  Z"
/>
<rect fill="#19b9d9" x="133.95" y="52.87" width="61.12" height="31.74" rx="15.08"/>
<path fill="#88cca6" d="
  M 46.29 113.00
  Q 43.62 114.62 40.54 114.25
  Q 39.06 110.15 37.64 106.04
  Q 37.27 104.99 37.22 106.32
  Q 36.83 117.13 37.17 127.94
  C 37.18 128.26 36.97 128.53 36.69 128.54
  L 30.93 128.86
  C 30.66 128.88 30.43 128.62 30.42 128.30
  L 30.29 98.07
  C 30.28 97.51 30.74 97.05 31.30 97.04
  L 39.87 97.00
  C 40.38 96.99 40.83 97.32 41.00 97.80
  L 46.29 113.00
  Z"
/>
<path fill="#76caaf" d="
  M 40.54 114.25
  Q 43.62 114.62 46.29 113.00
  L 47.80 116.63
  Q 48.29 117.80 48.72 116.59
  L 55.50 97.65
  C 55.60 97.37 55.87 97.17 56.18 97.14
  Q 60.95 96.68 65.70 97.25
  C 65.98 97.28 66.19 97.52 66.19 97.81
  L 66.25 128.19
  C 66.25 128.52 66.02 128.78 65.74 128.79
  L 59.94 128.88
  C 59.66 128.89 59.43 128.64 59.42 128.32
  Q 58.98 113.26 59.25 107.00
  Q 59.29 106.16 58.99 105.81
  Q 58.63 105.38 58.40 106.04
  L 51.24 127.32
  C 50.99 128.07 50.34 128.63 49.55 128.77
  Q 46.32 129.34 45.15 127.97
  Q 45.06 127.87 43.87 124.48
  Q 42.09 119.40 40.54 114.25
  Z"
/>
<circle fill="#57c4bd" cx="90.96" cy="112.94" r="15.87"/>
<path fill="#3abeca" d="
  M 126.87 117.23
  L 134.20 98.21
  C 134.45 97.56 135.02 97.12 135.61 97.13
  L 141.45 97.21
  C 141.71 97.21 141.87 97.50 141.76 97.77
  L 129.19 128.29
  C 129.06 128.62 128.78 128.83 128.51 128.81
  L 124.25 128.50
  C 123.62 128.46 123.04 127.99 122.77 127.31
  L 111.07 98.04
  C 110.89 97.59 111.19 97.10 111.64 97.11
  L 118.19 97.22
  C 118.47 97.23 118.73 97.45 118.86 97.78
  L 126.50 117.23
  Q 126.69 117.70 126.87 117.23
  Z"
/>
<rect fill="#21bbd6" x="-3.50" y="-15.89" transform="translate(156.25,112.89) rotate(0.1)" width="7.00" height="31.78" rx="0.27"/>
<path fill="#0bb7e1" d="
  M 180.32 122.45
  L 194.50 122.41
  C 194.90 122.41 195.23 122.73 195.22 123.11
  L 195.21 128.06
  C 195.21 128.48 194.85 128.82 194.41 128.82
  L 173.30 128.75
  C 173.00 128.75 172.75 128.50 172.75 128.20
  L 172.75 97.66
  C 172.75 97.30 173.05 97.00 173.41 97.00
  L 193.55 97.00
  C 194.09 97.00 194.52 97.43 194.50 97.94
  L 194.25 102.94
  C 194.24 103.22 193.99 103.44 193.69 103.44
  L 180.32 103.56
  C 180.03 103.56 179.79 103.79 179.79 104.07
  L 179.77 108.56
  C 179.77 108.85 180.00 109.10 180.30 109.13
  Q 187.00 109.82 192.86 109.21
  C 193.32 109.16 193.71 109.52 193.68 109.97
  L 193.36 115.32
  C 193.34 115.60 193.10 115.81 192.81 115.81
  L 180.52 115.75
  C 180.10 115.75 179.75 116.09 179.76 116.50
  L 179.79 121.95
  C 179.80 122.23 180.03 122.45 180.32 122.45
  Z"
/>
<path fill="#57c4bd" d="
  M 65.00 173.21
  Q 68.58 173.51 67.33 171.88
  C 67.12 171.61 67.01 171.29 67.01 170.99
  Q 67.04 168.29 66.44 160.81
  Q 66.21 158.02 66.48 144.98
  Q 66.49 144.62 66.80 143.60
  Q 67.10 142.60 66.15 142.09
  C 66.09 142.06 66.01 141.87 65.94 141.62
  Q 65.89 141.44 65.50 141.29
  Q 83.63 140.84 101.75 141.14
  Q 108.59 141.26 112.00 142.78
  Q 118.23 145.55 120.26 151.88
  Q 122.48 158.77 119.23 164.88
  Q 116.80 169.46 111.86 171.61
  Q 108.73 172.98 102.42 173.09
  Q 83.71 173.41 65.00 173.21
  Z"
/>
<path fill="#7dcbac" d="
  M 65.50 141.29
  Q 65.89 141.44 65.94 141.62
  C 66.01 141.87 66.09 142.06 66.15 142.09
  Q 67.10 142.60 66.80 143.60
  Q 66.49 144.62 66.48 144.98
  Q 66.21 158.02 66.44 160.81
  Q 67.04 168.29 67.01 170.99
  C 67.01 171.29 67.12 171.61 67.33 171.88
  Q 68.58 173.51 65.00 173.21
  Q 57.13 173.28 49.25 173.23
  Q 39.64 173.16 34.89 166.49
  Q 31.28 161.42 31.87 155.39
  Q 32.49 148.99 38.06 144.56
  Q 41.41 141.90 45.54 141.33
  Q 46.16 141.25 53.47 141.24
  Q 59.48 141.24 65.50 141.29
  Z"
/>
<path fill="#2abbd1" d="
  M 155.31 145.19
  Q 160.65 149.20 160.52 156.50
  Q 160.35 166.26 153.15 170.44
  Q 149.50 172.57 142.45 172.93
  Q 137.14 173.21 131.81 172.96
  C 131.53 172.95 131.31 172.72 131.31 172.44
  L 131.25 141.99
  C 131.25 141.71 131.46 141.48 131.74 141.46
  Q 137.24 141.07 142.75 141.15
  Q 150.09 141.27 155.31 145.19
  Z
  M 149.81 149.94
  Q 145.17 146.97 139.06 147.74
  C 138.78 147.78 138.57 148.03 138.56 148.32
  L 138.30 165.86
  C 138.30 166.15 138.51 166.40 138.80 166.44
  Q 142.86 166.99 146.42 165.99
  Q 149.80 165.03 151.39 162.95
  Q 153.14 160.65 153.25 157.00
  Q 153.39 152.23 149.81 149.94
  Z"
/>
<path fill="#0bb7e1" d="
  M 190.05 156.82
  Q 195.09 158.27 195.79 162.76
  Q 196.35 166.40 194.16 169.36
  Q 191.83 172.51 187.50 172.75
  Q 180.26 173.16 171.72 172.97
  C 171.32 172.96 171.00 172.64 171.00 172.24
  L 171.00 142.62
  C 171.00 141.94 171.54 141.37 172.22 141.34
  Q 179.36 140.94 185.55 141.54
  Q 190.33 142.00 192.38 143.99
  Q 195.43 146.96 193.94 152.19
  Q 193.42 154.00 189.97 156.41
  Q 189.58 156.68 190.05 156.82
  Z
  M 185.83 147.94
  Q 182.27 146.86 178.56 147.25
  C 178.26 147.28 178.04 147.53 178.04 147.81
  L 178.03 153.10
  C 178.03 153.54 178.38 153.91 178.83 153.94
  Q 181.64 154.12 183.52 153.99
  Q 187.68 153.70 187.27 149.70
  C 187.19 148.88 186.62 148.18 185.83 147.94
  Z
  M 184.95 160.23
  Q 181.86 159.64 178.68 160.11
  C 178.36 160.16 178.13 160.40 178.13 160.69
  L 178.07 166.17
  C 178.06 166.53 178.36 166.84 178.75 166.88
  Q 182.65 167.26 185.67 166.76
  Q 187.38 166.47 188.21 165.27
  Q 189.46 163.45 188.27 161.92
  Q 187.29 160.68 184.95 160.23
  Z"
/>
<path fill="#042642" d="
  M 185.83 147.94
  C 186.62 148.18 187.19 148.88 187.27 149.70
  Q 187.68 153.70 183.52 153.99
  Q 181.64 154.12 178.83 153.94
  C 178.38 153.91 178.03 153.54 178.03 153.10
  L 178.04 147.81
  C 178.04 147.53 178.26 147.28 178.56 147.25
  Q 182.27 146.86 185.83 147.94
  Z"
/>
<path fill="#042642" d="
  M 149.81 149.94
  Q 153.39 152.23 153.25 157.00
  Q 153.14 160.65 151.39 162.95
  Q 149.80 165.03 146.42 165.99
  Q 142.86 166.99 138.80 166.44
  C 138.51 166.40 138.30 166.15 138.30 165.86
  L 138.56 148.32
  C 138.57 148.03 138.78 147.78 139.06 147.74
  Q 145.17 146.97 149.81 149.94
  Z"
/>
<path fill="#042642" d="
  M 188.27 161.92
  Q 189.46 163.45 188.21 165.27
  Q 187.38 166.47 185.67 166.76
  Q 182.65 167.26 178.75 166.88
  C 178.36 166.84 178.06 166.53 178.07 166.17
  L 178.13 160.69
  C 178.13 160.40 178.36 160.16 178.68 160.11
  Q 181.86 159.64 184.95 160.23
  Q 187.29 160.68 188.27 161.92
  Z"
/>
</svg>
